<svg width="70" height="70" viewBox="0 0 70 70" fill="none" xmlns="http://www.w3.org/2000/svg">
<path d="M35 1.46689C53.5121 1.46689 68.5331 16.5172 68.5331 35C68.5331 53.5122 53.4828 68.5331 35 68.5331C16.4878 68.5331 1.46689 53.4828 1.46689 35C1.46689 16.5172 16.5172 1.46689 35 1.46689ZM35 0C15.6664 0 0 15.6664 0 35C0 54.3336 15.6664 70 35 70C54.3336 70 70 54.3336 70 35C70.0293 15.6664 54.3629 0 35 0Z" fill="#E30613"/>
<path d="M48.6419 38.6962H40.0753V40.8966H48.6419V38.6962Z" fill="#E30613"/>
<path d="M50.3142 34.618H40.0753V36.8183H50.3142V34.618Z" fill="#E30613"/>
<path d="M44.3586 42.6272H40.0753V44.8276H44.3586V42.6272Z" fill="#E30613"/>
<path d="M41.5715 25.4647C42.3979 25.4647 43.0678 24.7948 43.0678 23.9685C43.0678 23.1421 42.3979 22.4722 41.5715 22.4722C40.7452 22.4722 40.0753 23.1421 40.0753 23.9685C40.0753 24.7948 40.7452 25.4647 41.5715 25.4647Z" fill="#E30613"/>
<path d="M46.207 25.4647C47.0334 25.4647 47.7033 24.7948 47.7033 23.9685C47.7033 23.1421 47.0334 22.4722 46.207 22.4722C45.3807 22.4722 44.7108 23.1421 44.7108 23.9685C44.7108 24.7948 45.3807 25.4647 46.207 25.4647Z" fill="#E30613"/>
<path d="M51.1063 25.4647C51.9327 25.4647 52.6026 24.7948 52.6026 23.9685C52.6026 23.1421 51.9327 22.4722 51.1063 22.4722C50.28 22.4722 49.6101 23.1421 49.6101 23.9685C49.6101 24.7948 50.28 25.4647 51.1063 25.4647Z" fill="#E30613"/>
<path d="M52.1919 20.3601C53.7762 20.3601 55.0377 21.6509 55.0377 23.2058V47.0575C55.0377 48.6417 53.7468 49.9032 52.1919 49.9032H17.8667C16.2825 49.9032 15.021 48.6124 15.021 47.0575V23.2058C15.021 21.6216 16.3118 20.3601 17.8667 20.3601H52.1919ZM52.1919 18.8932H17.8667C15.4904 18.8932 13.5541 20.8295 13.5541 23.2058V47.0575C13.5541 49.4338 15.4904 51.3701 17.8667 51.3701H52.1919C54.5683 51.3701 56.5046 49.4338 56.5046 47.0575V23.2058C56.5046 20.8295 54.5683 18.8932 52.1919 18.8932Z" fill="#E30613"/>
<path d="M56.5045 26.9023H13.5247V28.5745H56.5045V26.9023Z" fill="#E30613"/>
<path d="M27.5188 46.6468C31.4236 46.6468 34.5892 43.4813 34.5892 39.5764C34.5892 35.6715 31.4236 32.506 27.5188 32.506C23.6139 32.506 20.4484 35.6715 20.4484 39.5764C20.4484 43.4813 23.6139 46.6468 27.5188 46.6468Z" fill="#E30613"/>
</svg>
