<svg width="70" height="70" viewBox="0 0 70 70" fill="none" xmlns="http://www.w3.org/2000/svg">
<path d="M35 1.46689C53.5122 1.46689 68.5331 16.5172 68.5331 35C68.5331 53.5122 53.4828 68.5331 35 68.5331C16.4879 68.5331 1.46689 53.4828 1.46689 35C1.43755 16.5172 16.4879 1.46689 35 1.46689ZM35 0C15.6664 0 0 15.6664 0 35C0 54.3336 15.6664 70 35 70C54.3336 70 70 54.3336 70 35C70 15.6664 54.3336 0 35 0Z" fill="#E30613"/>
<path d="M61.6 39.5847H58.5164V37.9778H55.4327V36.7799L51.8445 33.975H49.2935V25.1806C49.2935 23.8658 48.2563 22.7847 46.9948 22.7847H46.2379V21.9959C46.2379 20.6811 45.2007 19.6 43.9392 19.6H22.4379C21.4287 19.6 20.5877 20.272 20.2794 21.207H14V25.9986H20.1392V29.3586C19.2422 29.68 18.5974 30.5566 18.5974 31.6084V37.2181H14V50.0153H18.5974V50.8042C18.5974 52.119 19.6346 53.2 20.8961 53.2H43.9112C44.9204 53.2 45.7614 52.528 46.0697 51.5931H46.9668C47.976 51.5931 48.817 50.9211 49.1253 49.9861H51.8165L55.4047 47.1813V45.9833H58.4883V44.3764H61.572V39.5847H61.6ZM44.7241 21.9959V22.7847H41.6405V29.1833H24.7647V21.1778H43.9392C44.3877 21.1778 44.7241 21.5576 44.7241 21.9959ZM22.466 21.1778H23.2228V29.1833H21.681V21.9959C21.7091 21.5576 22.0455 21.1778 22.466 21.1778ZM15.5698 24.3917V22.7847H20.1673V24.3917H15.5698ZM18.6254 38.7959V40.8411C18.1769 40.5781 17.6443 40.4028 17.0836 40.4028C16.523 40.4028 15.9903 40.5781 15.5418 40.8411V38.7959H18.6254ZM18.6254 43.5875C18.6254 44.464 17.9246 45.1945 17.0836 45.1945C16.2426 45.1945 15.5418 44.464 15.5418 43.5875C15.5418 42.711 16.2426 41.9806 17.0836 41.9806C17.9246 41.9806 18.6254 42.711 18.6254 43.5875ZM15.5698 48.3792V46.334C16.0184 46.5969 16.551 46.7722 17.1117 46.7722C17.6723 46.7722 18.205 46.5969 18.6535 46.334V48.3792H15.5698ZM44.7241 50.775C44.7241 51.2133 44.3877 51.5639 43.9673 51.5639H24.7927V33.1569H23.2509V51.5639H20.9241C20.5036 51.5639 20.1673 51.2133 20.1673 50.775V31.5792C20.1673 31.1409 20.5036 30.7903 20.9241 30.7903H40.0987V49.9861H41.6405V30.7903H43.9392C44.3597 30.7903 44.6961 31.1409 44.6961 31.5792V50.775H44.7241ZM47.7797 49.1973C47.7797 49.6355 47.4433 49.9861 47.0228 49.9861H46.266V31.5792C46.266 30.2644 45.2287 29.1833 43.9673 29.1833H43.2104V24.3917H47.0509C47.4714 24.3917 47.8078 24.7423 47.8078 25.1806V49.1973H47.7797ZM53.919 46.3924L51.368 48.3792H49.3216V35.582H51.368L53.919 37.5687V46.3924ZM57.0026 44.3764H55.4608V39.5847H57.0026V44.3764ZM60.0582 42.7987H58.5164V41.1917H60.0582V42.7987Z" fill="#E30613"/>
</svg>
