<svg width="70" height="70" viewBox="0 0 70 70" fill="none" xmlns="http://www.w3.org/2000/svg">
<path d="M35 1.46689C53.5122 1.46689 68.5331 16.5172 68.5331 35C68.5331 53.4828 53.4828 68.5625 35 68.5625C16.4879 68.5625 1.46689 53.5122 1.46689 35.0293C1.46689 16.5465 16.4879 1.46689 35 1.46689ZM35 0C15.6664 0 0 15.6664 0 35C0 54.3336 15.6664 70 35 70C54.3336 70 70 54.3336 70 35C70 15.6957 54.3336 0 35 0Z" fill="#E30613"/>
<path d="M45.5908 48.1139C44.5934 48.1139 43.6545 47.6152 43.1265 47.0578C42.7744 46.7057 42.7744 46.1189 43.1265 45.7376C43.4785 45.3855 44.0653 45.3855 44.4467 45.7376C44.4467 45.7376 44.7694 46.0603 45.2388 46.1776C45.5615 46.2656 46.0603 46.3243 46.6763 45.7376C47.2924 45.1215 47.2338 44.6227 47.1164 44.3C46.9697 43.8599 46.6763 43.5079 46.647 43.5079C46.295 43.1558 46.295 42.5691 46.647 42.1877C46.9991 41.8356 47.5858 41.8356 47.9672 42.1877C48.9354 43.1558 49.7275 45.2388 47.9672 47.0284C47.2044 47.8205 46.383 48.1139 45.5908 48.1139Z" fill="#E30613"/>
<path d="M40.3393 49.8742C39.3418 49.8742 38.403 49.3754 37.8749 48.818C37.5228 48.466 37.5228 47.8792 37.8749 47.4978C38.2269 47.1458 38.8137 47.1458 39.1951 47.4978C39.1951 47.4978 39.5178 47.8205 39.9872 47.9379C40.3099 48.0259 40.8087 48.0846 41.4248 47.4978C42.0408 46.8817 41.9822 46.383 41.8648 46.0603C41.7181 45.6202 41.4247 45.2682 41.3954 45.2682C41.0434 44.9161 41.0434 44.3293 41.3954 43.9479C41.7475 43.5959 42.3342 43.5959 42.7156 43.9479C43.6838 44.9161 44.4759 46.9991 42.7156 48.7887C41.9235 49.5808 41.102 49.8742 40.3393 49.8742Z" fill="#E30613"/>
<path d="M35.088 51.5755C34.0905 51.5755 33.181 51.1062 32.5942 50.5781L32.5649 50.5487L30.8046 48.7885C30.4526 48.4364 30.4526 47.8497 30.8046 47.4683C30.8046 47.4683 31.1274 47.1455 31.2447 46.6761C31.3327 46.3534 31.3914 45.8547 30.8046 45.2386C30.1886 44.6225 29.6898 44.6812 29.3671 44.7985C28.927 44.9452 28.575 45.2386 28.575 45.2679C28.2229 45.62 27.6362 45.62 27.2548 45.2679C26.9027 44.9159 26.9027 44.3291 27.2548 43.9477C28.2229 42.9796 30.3059 42.1875 32.0955 43.9477C33.5037 45.3559 33.2984 46.9402 32.6529 48.0257L33.8264 49.1992C33.8851 49.2579 34.2078 49.5219 34.6479 49.6393C35.176 49.786 35.616 49.6686 36.0561 49.2285C36.4962 48.7885 36.6429 48.3191 36.4668 47.7616C36.3202 47.3216 36.0268 46.9695 36.0268 46.9695C35.6747 46.5881 35.7041 46.0014 36.0854 45.6493C36.4668 45.2973 37.0536 45.3266 37.4057 45.708C38.3151 46.7055 39.0779 48.8178 37.3763 50.5194C36.6722 51.3115 35.8507 51.5755 35.088 51.5755Z" fill="#E30613"/>
<path d="M29.6311 49.8743C28.8684 49.8743 28.0469 49.5809 27.2841 48.8181C26.316 47.85 25.9933 46.6471 26.404 45.4442C26.6974 44.5935 27.2254 44.036 27.2841 43.9774C27.6362 43.6253 28.2229 43.6253 28.6043 43.9774C28.9564 44.3294 28.9564 44.9162 28.6043 45.2976C28.6043 45.2976 28.2816 45.6203 28.1642 46.0897C28.0762 46.4124 28.0176 46.9111 28.6043 47.5272C29.2204 48.1433 29.7191 48.0847 30.0419 47.9673C30.4819 47.8206 30.834 47.5272 30.834 47.4979C31.186 47.1458 31.7728 47.1458 32.1542 47.4979C32.5356 47.8499 32.5062 48.4367 32.1542 48.8181C31.5674 49.3755 30.658 49.8743 29.6311 49.8743Z" fill="#E30613"/>
<path d="M49.1112 44.5934C48.1137 44.5934 47.1749 44.0946 46.6468 43.5372C46.2948 43.1852 46.2948 42.5984 46.6468 42.217C46.9989 41.865 47.5856 41.865 47.9377 42.217C47.967 42.2464 48.2897 42.5397 48.7298 42.6864C49.0525 42.7744 49.5513 42.8331 50.1674 42.2463C50.7835 41.6302 50.7248 41.1315 50.6074 40.8088C50.4608 40.3687 50.1674 40.0167 50.138 40.0167L48.4071 38.2857L48.3778 38.2564L39.8698 29.7485H33.5915L32.0953 31.2447C30.2763 33.0636 28.6334 33.7971 27.0785 33.4743C25.6996 33.2103 24.7022 32.2128 23.734 31.2447C23.558 31.0686 23.47 30.834 23.47 30.5993C23.47 30.3645 23.558 30.1298 23.734 29.9538C23.7633 29.9245 25.553 28.1642 29.0148 24.7023C32.3887 21.3285 39.6938 22.2673 41.6594 22.59L44.8279 19.4215C45.0039 19.2455 45.2386 19.1575 45.4733 19.1575C45.708 19.1575 45.9427 19.2455 46.1187 19.4215L54.9201 28.2229C55.2721 28.5749 55.2721 29.1617 54.9201 29.5431L51.6343 32.8289L50.138 37.3469L51.4876 38.6965C51.5462 38.7551 52.1037 39.3126 52.3677 40.1634C52.7784 41.3662 52.4557 42.5691 51.4876 43.5372C50.7248 44.3 49.9033 44.5934 49.1112 44.5934ZM33.2395 27.8708H40.2805C40.5152 27.8708 40.7499 27.9588 40.926 28.1349L48.6711 35.88L49.962 32.0368C50.0207 31.8901 50.0794 31.7727 50.1967 31.6847L53.0718 28.8096L45.532 21.3285L42.6569 24.2036C42.4515 24.409 42.1288 24.5263 41.8354 24.4676C41.7474 24.4383 33.5035 22.854 30.3644 25.9932C28.1053 28.2522 26.5504 29.8071 25.729 30.5993C26.2864 31.1273 26.8731 31.5674 27.4599 31.6847C28.3694 31.8608 29.4549 31.3034 30.8044 29.9538L32.5647 28.1935C32.7407 27.9882 32.9754 27.8708 33.2395 27.8708Z" fill="#E30613"/>
<path d="M20.8589 44.5933C20.0961 44.5933 19.2747 44.2999 18.5119 43.5371C16.7516 41.7768 17.5438 39.6645 18.5119 38.6964L22.0324 35.1758C23.0006 34.2077 25.0836 33.4156 26.8732 35.1758C28.6335 36.9361 27.8413 39.0484 26.8732 40.0166C26.5211 40.3686 25.9344 40.3686 25.553 40.0166C25.2009 39.6645 25.2009 39.0778 25.553 38.6964C25.553 38.6964 25.8757 38.3737 25.993 37.9043C26.0811 37.5815 26.1397 37.0828 25.553 36.4667C24.9369 35.8506 24.4381 35.9093 24.1154 36.0266C23.6754 36.1733 23.3233 36.4667 23.3233 36.496L19.8028 40.0166C19.8028 40.0166 19.4801 40.3393 19.3627 40.8087C19.2747 41.1314 19.216 41.6301 19.8028 42.2462C20.4189 42.8623 20.9176 42.8037 21.2403 42.6863C21.6804 42.5396 22.0324 42.2463 22.0324 42.2169C22.3845 41.8649 22.9713 41.8649 23.3526 42.2169C23.734 42.569 23.7047 43.1557 23.3526 43.5371C22.7659 44.0945 21.8564 44.5933 20.8589 44.5933Z" fill="#E30613"/>
<path d="M24.3504 48.1134C23.4996 48.1134 22.6781 47.7614 22.0034 47.0573C21.0352 46.0891 20.7125 44.8863 21.1232 43.6834C21.4166 42.8326 21.9447 42.2752 22.0034 42.2165L25.5239 38.696C25.6412 38.5786 26.6094 37.6398 28.0176 37.6398C28.8684 37.6398 29.6899 37.9919 30.3646 38.696C32.1249 40.4563 31.3328 42.5686 30.3646 43.5367L26.8441 47.0573C26.7267 47.1746 25.7586 48.1134 24.3504 48.1134ZM23.3236 43.5367C23.3236 43.5367 23.0008 43.8594 22.8835 44.3288C22.7955 44.6516 22.7368 45.1503 23.3236 45.7664C23.6756 46.1185 23.9983 46.2652 24.3504 46.2652C24.9665 46.2652 25.5239 45.7664 25.5239 45.7664L29.0444 42.2459C29.0444 42.2459 29.3671 41.9232 29.4845 41.4538C29.5725 41.131 29.6312 40.6323 29.0444 40.0162C28.6924 39.6642 28.3697 39.5174 28.0176 39.5174C27.4015 39.5174 26.8441 40.0162 26.8441 40.0162L23.3236 43.5367Z" fill="#E30613"/>
<path d="M38.4912 49.0821C38.2565 49.0821 38.0218 48.9941 37.8457 48.8181L34.3252 45.2976C33.9731 44.9455 33.9731 44.3587 34.3252 43.9774C34.6773 43.6253 35.264 43.6253 35.6454 43.9774L39.1659 47.4979C39.518 47.8499 39.518 48.4367 39.1659 48.8181C38.9899 48.9941 38.7552 49.0821 38.4912 49.0821Z" fill="#E30613"/>
<path d="M43.7719 47.3219C43.5372 47.3219 43.3025 47.2339 43.1265 47.0579L37.8457 41.7771C37.4937 41.425 37.4937 40.8382 37.8457 40.4569C38.1978 40.1048 38.7845 40.1048 39.1659 40.4569L44.4467 45.7377C44.7988 46.0897 44.7988 46.6765 44.4467 47.0579C44.2707 47.2339 44.0066 47.3219 43.7719 47.3219Z" fill="#E30613"/>
<path d="M47.2925 43.8014C47.0577 43.8014 46.823 43.7134 46.647 43.5373L41.3662 38.2565C41.0142 37.9045 41.0142 37.3177 41.3662 36.9363C41.7183 36.5843 42.305 36.5843 42.6864 36.9363L47.9672 42.2172C48.3193 42.5692 48.3193 43.156 47.9672 43.5373C47.7912 43.7134 47.5272 43.8014 47.2925 43.8014Z" fill="#E30613"/>
<path d="M20.9177 38.5204C20.5363 38.5204 20.155 38.2857 20.0376 37.875L18.336 32.7995L14.9622 29.4257C14.7861 29.2497 14.6981 29.0149 14.6981 28.7802C14.6981 28.5455 14.7861 28.3108 14.9622 28.1348L23.7635 19.3335C24.1156 18.9814 24.7023 18.9814 25.0837 19.3335L28.2522 22.502C29.367 22.3259 32.1835 21.9445 35.0292 22.2379C35.528 22.2966 35.9093 22.7367 35.8507 23.2647C35.792 23.7635 35.3519 24.1449 34.8239 24.0862C31.5087 23.7341 28.1348 24.4089 28.1055 24.4089C27.8121 24.4676 27.4894 24.3796 27.2547 24.1449L24.3796 21.2698L16.8691 28.7509L19.7442 31.626C19.8322 31.714 19.9202 31.8607 19.9789 31.9781L21.7392 37.2589C21.9152 37.7576 21.6512 38.2564 21.1524 38.4324C21.0938 38.5204 21.0057 38.5204 20.9177 38.5204Z" fill="#E30613"/>
</svg>
