<svg width="70" height="70" viewBox="0 0 70 70" fill="none" xmlns="http://www.w3.org/2000/svg">
<path d="M35 1.46689C53.5121 1.46689 68.5331 16.5172 68.5331 35C68.5331 53.4828 53.4828 68.5331 35 68.5331C16.4878 68.5331 1.46689 53.4828 1.46689 35C1.46689 16.5172 16.5172 1.46689 35 1.46689ZM35 0C15.6664 0 0 15.6664 0 35C0 54.3336 15.6664 70 35 70C54.3336 70 70 54.3336 70 35C70.0293 15.6664 54.3336 0 35 0Z" fill="#E30613"/>
<path d="M34.9413 32.9754C35.088 33.1221 35.264 33.2394 35.4694 33.2394C35.6747 33.2394 35.9094 33.1807 36.0561 33.034L50.2263 21.0642C50.373 20.9175 50.4903 20.7415 50.4903 20.5361C50.4903 20.3308 50.4316 20.0961 50.2849 19.9494C46.4124 15.4314 41.0142 13.0844 35.4694 13.0844C31.01 13.0844 26.5507 14.5806 22.9128 17.6904C22.5901 17.9544 22.5314 18.4825 22.7954 18.8052L34.9413 32.9754ZM24.6437 18.3945C26.9027 16.6636 29.4258 15.5487 32.0368 15.0206L26.0813 20.0667L24.6437 18.3945ZM38.6085 14.962C39.3126 15.0793 40.0461 15.2847 40.7502 15.49L29.9539 24.6141L29.1031 23.5872L38.3151 15.6954C38.6085 15.49 38.6672 15.226 38.6085 14.962ZM32.917 28.076L44.9455 17.8957C45.0628 17.7784 45.1508 17.6317 45.2095 17.4557C45.6496 17.7197 46.0603 18.0424 46.5004 18.3651L33.8264 29.1028L32.917 28.076ZM31.8902 26.8437L30.9807 25.8169L42.3637 16.2235C42.4224 16.1648 42.4811 16.1061 42.5104 16.0768C42.9798 16.2821 43.4199 16.5168 43.9186 16.7222L31.8902 26.8437ZM48.5834 20.3601L35.6454 31.3031L34.8533 30.3349L47.6152 19.5387L47.6739 19.48C47.9966 19.7147 48.3193 20.0374 48.5834 20.3601ZM36.9949 14.7273L28.0469 22.3551L27.1961 21.3283L34.0611 15.49C34.2665 15.2847 34.3839 15.0206 34.3252 14.7273C34.7653 14.6686 35.1173 14.6686 35.5574 14.6686C36.0268 14.6686 36.4962 14.6686 36.9949 14.7273Z" fill="#E30613"/>
<path d="M34.4718 35.3225L21.3285 19.7735C21.0644 19.4508 20.5364 19.3921 20.2136 19.6561C15.2849 23.8514 12.7618 29.807 12.7618 35.7919C12.7618 40.6327 14.4341 45.5028 17.8079 49.4634C22.0032 54.3921 27.9588 56.9151 33.9437 56.9151C38.7845 56.9151 43.6545 55.2429 47.6151 51.869C47.7618 51.7224 47.8792 51.5463 47.8792 51.341C47.8792 51.1356 47.8205 50.9009 47.6738 50.7542L34.4718 35.3225ZM18.9521 48.4659L18.3654 48.9939L18.9521 48.4659C15.8423 44.7693 14.2874 40.31 14.2874 35.7919C14.2874 30.4818 16.4291 25.2303 20.6244 21.4164L33.2983 36.32L45.9429 51.2236C42.393 54.0107 38.1684 55.3602 33.9144 55.3602C28.3402 55.3896 22.8247 53.0426 18.9521 48.4659Z" fill="#E30613"/>
<path d="M52.6025 22.5602C52.4558 22.4135 52.2798 22.2961 52.0744 22.2961C51.8691 22.2961 51.6344 22.3548 51.4877 22.5015L37.3175 34.53C37.1708 34.6767 37.0535 34.8527 37.0535 35.0581C37.0535 35.2634 37.1121 35.4981 37.2588 35.6448L49.2873 49.815C49.434 49.9617 49.61 50.079 49.8154 50.079C50.0208 50.079 50.2555 50.0203 50.4022 49.8737C54.9202 46.0011 57.2672 40.6029 57.2672 35.0581C57.2085 30.6574 55.7123 26.1981 52.6025 22.5602ZM49.9034 48.1427L38.9018 35.2048L51.869 24.2031C54.3921 27.4302 55.5656 31.2735 55.5656 35.0874C55.595 39.9575 53.6587 44.6515 49.9034 48.1427Z" fill="#E30613"/>
</svg>
